<svg xmlns="http://www.w3.org/2000/svg" width="22" height="22" fill="currentColor"
                            viewBox="0 0 24 24">
                            <path d="M12 .5C5.73.5.5 5.74.5 12.02c0 5.11 3.29 9.45 7.86 10.98.58.11.79-.25.79-.56
        0-.28-.01-1.02-.02-2-3.2.7-3.88-1.55-3.88-1.55-.53-1.35-1.3-1.71-1.3-1.71
        -1.06-.73.08-.72.08-.72 1.17.08 1.78 1.2 1.78 1.2
        1.04 1.79 2.73 1.27 3.4.97.11-.76.41-1.27.74-1.56
        -2.56-.29-5.26-1.28-5.26-5.71
        0-1.26.45-2.29 1.19-3.1-.12-.29-.52-1.47.11-3.06
        0 0 .97-.31 3.18 1.18a11.1 11.1 0 0 1 5.8 0
        c2.21-1.49 3.18-1.18 3.18-1.18
        .63 1.59.23 2.77.11 3.06
        .74.81 1.19 1.84 1.19 3.1
        0 4.44-2.7 5.42-5.28 5.7
        .42.36.79 1.08.79 2.18
        0 1.58-.01 2.85-.01 3.24
        0 .31.21.68.8.56
        4.56-1.53 7.85-5.87 7.85-10.98
        C23.5 5.74 18.27.5 12 .5z" />
                        </svg>